<svg xmlns="http://www.w3.org/2000/svg" viewBox="0 0 128 128" role="img" aria-label="Orange Creator Assistant">
  <defs>
    <linearGradient id="bg" x1="20" y1="10" x2="108" y2="118" gradientUnits="userSpaceOnUse">
      <stop offset="0" stop-color="#fb923c"/>
      <stop offset="0.52" stop-color="#f97316"/>
      <stop offset="1" stop-color="#ea580c"/>
    </linearGradient>
    <linearGradient id="shine" x1="38" y1="24" x2="86" y2="104" gradientUnits="userSpaceOnUse">
      <stop offset="0" stop-color="#ffffff" stop-opacity="0.9"/>
      <stop offset="1" stop-color="#ffffff" stop-opacity="0.25"/>
    </linearGradient>
  </defs>
  <rect width="128" height="128" rx="30" fill="#0f172a"/>
  <circle cx="64" cy="64" r="48" fill="url(#bg)"/>
  <path d="M88 42H40c-4.4 0-8 3.6-8 8v28c0 4.4 3.6 8 8 8h48c4.4 0 8-3.6 8-8V50c0-4.4-3.6-8-8-8Z" fill="#fff7ed"/>
  <path d="M57 57.5v13c0 2.4 2.6 3.9 4.7 2.7l12-6.5c2.2-1.2 2.2-4.2 0-5.4l-12-6.5c-2.1-1.2-4.7.3-4.7 2.7Z" fill="#f97316"/>
  <path d="M42 42h44L73 30H55L42 42Z" fill="url(#shine)" opacity="0.9"/>
  <path d="M64 98 49 83h10V68h10v15h10L64 98Z" fill="#fff7ed"/>
</svg>
